<mxfile host="65bd71144e">
    <diagram id="FyQH_0DD5EB0fLvAyzvK" name="Automat">
        <mxGraphModel dx="1963" dy="1316" grid="1" gridSize="10" guides="1" tooltips="1" connect="1" arrows="1" fold="1" page="1" pageScale="1" pageWidth="850" pageHeight="1100" math="0" shadow="0">
            <root>
                <mxCell id="0"/>
                <mxCell id="1" parent="0"/>
                <mxCell id="6" value="&lt;font style=&quot;font-size: 20px&quot;&gt;&amp;lt;S&amp;gt;&lt;/font&gt;" style="edgeStyle=none;html=1;exitX=1;exitY=0.5;exitDx=0;exitDy=0;entryX=0;entryY=0.5;entryDx=0;entryDy=0;" edge="1" parent="1" source="2" target="4">
                    <mxGeometry relative="1" as="geometry"/>
                </mxCell>
                <mxCell id="15" value="1" style="edgeStyle=none;html=1;exitX=0.5;exitY=1;exitDx=0;exitDy=0;fontSize=20;entryX=0.5;entryY=0;entryDx=0;entryDy=0;" edge="1" parent="1" source="2" target="12">
                    <mxGeometry relative="1" as="geometry">
                        <mxPoint x="340" y="330" as="targetPoint"/>
                    </mxGeometry>
                </mxCell>
                <mxCell id="2" value="&lt;pre&gt;&lt;span style=&quot;font-size: 20px&quot;&gt;&amp;lt;S'&amp;gt; → • &amp;lt;S&amp;gt; ─┤, {}&lt;br/&gt;&amp;lt;S&amp;gt; → • &amp;lt;S&amp;gt; , &amp;lt;A&amp;gt;, {─┤, &quot;,&quot;}&lt;br/&gt;&amp;lt;S&amp;gt; → • 1 &amp;lt;A&amp;gt;, {─┤, &quot;,&quot;}&lt;/span&gt;&lt;br&gt;&lt;/pre&gt;" style="rounded=0;whiteSpace=wrap;html=1;align=left;" vertex="1" parent="1">
                    <mxGeometry x="160" y="160" width="360" height="80" as="geometry"/>
                </mxCell>
                <mxCell id="3" value="&lt;pre&gt;&lt;font style=&quot;font-size: 20px&quot;&gt;∇&lt;/font&gt;&lt;/pre&gt;" style="rounded=0;whiteSpace=wrap;html=1;" vertex="1" parent="1">
                    <mxGeometry x="160" y="120" width="80" height="40" as="geometry"/>
                </mxCell>
                <mxCell id="9" style="edgeStyle=none;html=1;exitX=1;exitY=0.5;exitDx=0;exitDy=0;entryX=0;entryY=0.5;entryDx=0;entryDy=0;fontSize=20;" edge="1" parent="1" source="4" target="7">
                    <mxGeometry relative="1" as="geometry"/>
                </mxCell>
                <mxCell id="16" value="," style="edgeStyle=none;html=1;exitX=0.5;exitY=1;exitDx=0;exitDy=0;entryX=0.5;entryY=0;entryDx=0;entryDy=0;fontSize=20;" edge="1" parent="1" source="4" target="10">
                    <mxGeometry relative="1" as="geometry"/>
                </mxCell>
                <mxCell id="4" value="&lt;pre&gt;&lt;span style=&quot;font-size: 20px&quot;&gt;&amp;lt;S'&amp;gt; → &amp;lt;S&amp;gt; • ─┤, {}&lt;br&gt;&amp;lt;S&amp;gt; → &amp;lt;S&amp;gt; • , &amp;lt;A&amp;gt;, {─┤, &quot;,&quot;}&lt;br&gt;&lt;/span&gt;&lt;/pre&gt;" style="rounded=0;whiteSpace=wrap;html=1;align=left;" vertex="1" parent="1">
                    <mxGeometry x="600" y="160" width="360" height="80" as="geometry"/>
                </mxCell>
                <mxCell id="5" value="&lt;pre&gt;&lt;font style=&quot;font-size: 20px&quot;&gt;&amp;lt;S&amp;gt;&lt;sub&gt;x1&lt;/sub&gt;&lt;/font&gt;&lt;/pre&gt;" style="rounded=0;whiteSpace=wrap;html=1;" vertex="1" parent="1">
                    <mxGeometry x="600" y="120" width="80" height="40" as="geometry"/>
                </mxCell>
                <mxCell id="7" value="&lt;pre&gt;&lt;pre&gt;&amp;lt;S'&amp;gt; → &amp;lt;S&amp;gt; ─┤ •, {}&lt;br&gt;&lt;/pre&gt;&lt;/pre&gt;" style="rounded=0;whiteSpace=wrap;html=1;align=left;fontSize=20;" vertex="1" parent="1">
                    <mxGeometry x="1040" y="180" width="240" height="40" as="geometry"/>
                </mxCell>
                <mxCell id="8" value="&lt;pre&gt;&lt;pre style=&quot;font-size: 12px ; text-align: left&quot;&gt;&lt;span style=&quot;font-size: 20px&quot;&gt;─┤&lt;sub&gt;0&lt;/sub&gt;&lt;/span&gt;&lt;/pre&gt;&lt;/pre&gt;" style="rounded=0;whiteSpace=wrap;html=1;fontSize=20;" vertex="1" parent="1">
                    <mxGeometry x="1040" y="140" width="80" height="40" as="geometry"/>
                </mxCell>
                <mxCell id="20" value="(" style="edgeStyle=none;html=1;exitX=0.25;exitY=1;exitDx=0;exitDy=0;entryX=0.75;entryY=0;entryDx=0;entryDy=0;fontSize=20;" edge="1" parent="1" source="10" target="17">
                    <mxGeometry relative="1" as="geometry">
                        <Array as="points">
                            <mxPoint x="690" y="460"/>
                            <mxPoint x="430" y="460"/>
                        </Array>
                    </mxGeometry>
                </mxCell>
                <mxCell id="28" value="0" style="edgeStyle=none;html=1;exitX=0.5;exitY=1;exitDx=0;exitDy=0;entryX=0.5;entryY=0;entryDx=0;entryDy=0;fontSize=20;" edge="1" parent="1" source="10" target="21">
                    <mxGeometry relative="1" as="geometry"/>
                </mxCell>
                <mxCell id="40" style="edgeStyle=none;html=1;exitX=1;exitY=0.5;exitDx=0;exitDy=0;entryX=0;entryY=0.5;entryDx=0;entryDy=0;fontSize=20;" edge="1" parent="1" source="10" target="32">
                    <mxGeometry relative="1" as="geometry"/>
                </mxCell>
                <mxCell id="10" value="&lt;pre&gt;&lt;pre&gt;&amp;lt;S&amp;gt; → &amp;lt;S&amp;gt; , • &amp;lt;A&amp;gt;, {─┤, &quot;,&quot;}&lt;br/&gt;&amp;lt;A&amp;gt; → • ( &amp;lt;S&amp;gt; ), {─┤, &quot;,&quot;}&lt;br/&gt;&amp;lt;A&amp;gt; → • 0, {─┤, &quot;,&quot;}&lt;br/&gt;&amp;lt;A&amp;gt; → •, {─┤, &quot;,&quot;}&lt;span style=&quot;font-size: 12px&quot;&gt;&lt;br&gt;&lt;/span&gt;&lt;/pre&gt;&lt;/pre&gt;" style="rounded=0;whiteSpace=wrap;html=1;align=left;fontSize=20;" vertex="1" parent="1">
                    <mxGeometry x="600" y="320" width="360" height="120" as="geometry"/>
                </mxCell>
                <mxCell id="11" value="&lt;pre&gt;&lt;font style=&quot;font-size: 20px&quot;&gt;,&lt;sub&gt;1&lt;/sub&gt;&lt;/font&gt;&lt;/pre&gt;" style="rounded=0;whiteSpace=wrap;html=1;fontSize=20;" vertex="1" parent="1">
                    <mxGeometry x="600" y="280" width="80" height="40" as="geometry"/>
                </mxCell>
                <mxCell id="19" value="(" style="edgeStyle=none;html=1;exitX=0.5;exitY=1;exitDx=0;exitDy=0;entryX=0.5;entryY=0;entryDx=0;entryDy=0;fontSize=20;" edge="1" parent="1" source="12" target="17">
                    <mxGeometry relative="1" as="geometry"/>
                </mxCell>
                <mxCell id="30" value="0" style="edgeStyle=none;html=1;exitX=1;exitY=0.75;exitDx=0;exitDy=0;entryX=0;entryY=0.5;entryDx=0;entryDy=0;fontSize=20;" edge="1" parent="1" source="12" target="21">
                    <mxGeometry relative="1" as="geometry">
                        <Array as="points">
                            <mxPoint x="550" y="410"/>
                            <mxPoint x="550" y="540"/>
                        </Array>
                    </mxGeometry>
                </mxCell>
                <mxCell id="38" value="&amp;lt;A&amp;gt;" style="edgeStyle=none;html=1;exitX=0;exitY=0.5;exitDx=0;exitDy=0;entryX=1;entryY=0.5;entryDx=0;entryDy=0;fontSize=20;" edge="1" parent="1" source="12" target="34">
                    <mxGeometry relative="1" as="geometry"/>
                </mxCell>
                <mxCell id="12" value="&lt;pre&gt;&lt;pre&gt;&amp;lt;S&amp;gt; → 1 • &amp;lt;A&amp;gt;, {─┤, &quot;,&quot;}&lt;br/&gt;&amp;lt;A&amp;gt; → • ( &amp;lt;S&amp;gt; ), {─┤, &quot;,&quot;}&lt;br/&gt;&amp;lt;A&amp;gt; → • 0, {─┤, &quot;,&quot;}&lt;br/&gt;&amp;lt;A&amp;gt; → •, {─┤, &quot;,&quot;}&lt;br/&gt;&lt;/pre&gt;&lt;/pre&gt;" style="rounded=0;whiteSpace=wrap;html=1;align=left;fontSize=20;" vertex="1" parent="1">
                    <mxGeometry x="160" y="320" width="360" height="120" as="geometry"/>
                </mxCell>
                <mxCell id="13" value="&lt;pre&gt;&lt;font style=&quot;font-size: 20px&quot;&gt;1&lt;sub&gt;2&lt;/sub&gt;&lt;/font&gt;&lt;/pre&gt;" style="rounded=0;whiteSpace=wrap;html=1;fontSize=20;" vertex="1" parent="1">
                    <mxGeometry x="160" y="280" width="80" height="40" as="geometry"/>
                </mxCell>
                <mxCell id="23" value="1" style="edgeStyle=none;html=1;exitX=0.25;exitY=0;exitDx=0;exitDy=0;entryX=0.25;entryY=1;entryDx=0;entryDy=0;fontSize=20;" edge="1" parent="1" source="17" target="12">
                    <mxGeometry relative="1" as="geometry"/>
                </mxCell>
                <mxCell id="26" style="edgeStyle=none;html=1;exitX=0.5;exitY=1;exitDx=0;exitDy=0;entryX=0.5;entryY=0;entryDx=0;entryDy=0;fontSize=20;" edge="1" parent="1" source="17" target="24">
                    <mxGeometry relative="1" as="geometry"/>
                </mxCell>
                <mxCell id="17" value="&lt;pre&gt;&amp;lt;A&amp;gt; → ( • &amp;lt;S&amp;gt; ), {─┤, &quot;,&quot;}&lt;br&gt;&amp;lt;S&amp;gt; → • &amp;lt;S&amp;gt; , &amp;lt;A&amp;gt;, {), &quot;,&quot;}&lt;br&gt;&amp;lt;S&amp;gt; → • 1 &amp;lt;A&amp;gt;, {), &quot;,&quot;}&lt;/pre&gt;" style="rounded=0;whiteSpace=wrap;html=1;align=left;fontSize=20;" vertex="1" parent="1">
                    <mxGeometry x="160" y="520" width="360" height="80" as="geometry"/>
                </mxCell>
                <mxCell id="18" value="&lt;pre&gt;(&lt;sub&gt;3&lt;/sub&gt;&lt;/pre&gt;" style="rounded=0;whiteSpace=wrap;html=1;fontSize=20;" vertex="1" parent="1">
                    <mxGeometry x="160" y="480" width="80" height="40" as="geometry"/>
                </mxCell>
                <mxCell id="21" value="&lt;pre&gt;&amp;lt;A&amp;gt; → 0 •, {─┤, &quot;,&quot;}&lt;br&gt;&lt;/pre&gt;" style="rounded=0;whiteSpace=wrap;html=1;align=left;fontSize=20;" vertex="1" parent="1">
                    <mxGeometry x="660" y="520" width="240" height="40" as="geometry"/>
                </mxCell>
                <mxCell id="22" value="&lt;pre&gt;&lt;font style=&quot;font-size: 20px&quot;&gt;0&lt;sub&gt;4&lt;/sub&gt;&lt;/font&gt;&lt;/pre&gt;" style="rounded=0;whiteSpace=wrap;html=1;fontSize=20;" vertex="1" parent="1">
                    <mxGeometry x="660" y="480" width="80" height="40" as="geometry"/>
                </mxCell>
                <mxCell id="27" value="," style="edgeStyle=none;html=1;exitX=1;exitY=0.5;exitDx=0;exitDy=0;entryX=0;entryY=0.5;entryDx=0;entryDy=0;fontSize=20;" edge="1" parent="1" source="24" target="10">
                    <mxGeometry relative="1" as="geometry">
                        <Array as="points">
                            <mxPoint x="580" y="720"/>
                            <mxPoint x="580" y="380"/>
                        </Array>
                    </mxGeometry>
                </mxCell>
                <mxCell id="39" value=")" style="edgeStyle=none;html=1;exitX=0.5;exitY=1;exitDx=0;exitDy=0;entryX=0.5;entryY=0;entryDx=0;entryDy=0;fontSize=20;" edge="1" parent="1" source="24" target="36">
                    <mxGeometry relative="1" as="geometry"/>
                </mxCell>
                <mxCell id="24" value="&lt;pre&gt;&amp;lt;A&amp;gt; → ( &amp;lt;S&amp;gt; • ), {─┤, &quot;,&quot;}&lt;br&gt;&amp;lt;S&amp;gt; → &amp;lt;S&amp;gt; • , &amp;lt;A&amp;gt;, {), &quot;,&quot;}&lt;br&gt;&lt;/pre&gt;" style="rounded=0;whiteSpace=wrap;html=1;align=left;fontSize=20;" vertex="1" parent="1">
                    <mxGeometry x="160" y="680" width="360" height="80" as="geometry"/>
                </mxCell>
                <mxCell id="25" value="&lt;pre&gt;&lt;font style=&quot;font-size: 20px&quot;&gt;&amp;lt;S&amp;gt;&lt;sub&gt;x2&lt;/sub&gt;&lt;/font&gt;&lt;/pre&gt;" style="rounded=0;whiteSpace=wrap;html=1;fontSize=20;" vertex="1" parent="1">
                    <mxGeometry x="160" y="640" width="80" height="40" as="geometry"/>
                </mxCell>
                <mxCell id="32" value="&lt;pre&gt;&amp;lt;S&amp;gt; → &amp;lt;S&amp;gt; , &amp;lt;A&amp;gt; •, {─┤, &quot;,&quot;}&lt;br&gt;&lt;/pre&gt;" style="rounded=0;whiteSpace=wrap;html=1;align=left;fontSize=20;" vertex="1" parent="1">
                    <mxGeometry x="1040" y="360" width="360" height="40" as="geometry"/>
                </mxCell>
                <mxCell id="33" value="&lt;pre&gt;&lt;font style=&quot;font-size: 20px&quot;&gt;&amp;lt;A&amp;gt;&lt;sub&gt;1&lt;/sub&gt;&lt;/font&gt;&lt;/pre&gt;" style="rounded=0;whiteSpace=wrap;html=1;fontSize=20;" vertex="1" parent="1">
                    <mxGeometry x="1040" y="320" width="80" height="40" as="geometry"/>
                </mxCell>
                <mxCell id="34" value="&lt;pre&gt;&amp;lt;S&amp;gt; → 1 &amp;lt;A&amp;gt; •, {─┤, &quot;,&quot;}&lt;/pre&gt;" style="rounded=0;whiteSpace=wrap;html=1;align=left;fontSize=20;" vertex="1" parent="1">
                    <mxGeometry x="-200" y="360" width="320" height="40" as="geometry"/>
                </mxCell>
                <mxCell id="35" value="&lt;pre&gt;&amp;lt;A&amp;gt;&lt;sub&gt;2&lt;/sub&gt;&lt;/pre&gt;" style="rounded=0;whiteSpace=wrap;html=1;fontSize=20;" vertex="1" parent="1">
                    <mxGeometry x="-200" y="320" width="80" height="40" as="geometry"/>
                </mxCell>
                <mxCell id="36" value="&lt;pre&gt;&amp;lt;A&amp;gt; → ( &amp;lt;S&amp;gt; ) •, {─┤, &quot;,&quot;}&lt;br&gt;&lt;/pre&gt;" style="rounded=0;whiteSpace=wrap;html=1;align=left;fontSize=20;" vertex="1" parent="1">
                    <mxGeometry x="180" y="840" width="320" height="40" as="geometry"/>
                </mxCell>
                <mxCell id="37" value="&lt;pre&gt;&lt;font style=&quot;font-size: 20px&quot;&gt;)&lt;sub&gt;3&lt;/sub&gt;&lt;/font&gt;&lt;/pre&gt;" style="rounded=0;whiteSpace=wrap;html=1;fontSize=20;" vertex="1" parent="1">
                    <mxGeometry x="180" y="800" width="80" height="40" as="geometry"/>
                </mxCell>
            </root>
        </mxGraphModel>
    </diagram>
</mxfile>
